<svg width="17" height="17" viewBox="0 0 17 17" fill="none" xmlns="http://www.w3.org/2000/svg">
<path d="M11.4441 1.18715C11.4441 3.6786 13.4638 5.69832 15.9553 5.69832C13.4638 5.69832 11.4441 7.71804 11.4441 10.2095C11.4441 7.71804 9.42441 5.69832 6.93295 5.69832C9.42441 5.69832 11.4441 3.6786 11.4441 1.18715Z" fill="#403F3C"/>
<path d="M4.51117 7.97766C4.51117 10.4691 6.53089 12.4888 9.02235 12.4888C6.53089 12.4888 4.51117 14.5086 4.51117 17C4.51117 14.5086 2.49145 12.4888 0 12.4888C2.49145 12.4888 4.51117 10.4691 4.51117 7.97766Z" fill="#403F3C"/>
<path d="M14.8156 10.352C14.8156 11.5583 15.7936 12.5363 17 12.5363C15.7936 12.5363 14.8156 13.5143 14.8156 14.7207C14.8156 13.5143 13.8377 12.5363 12.6313 12.5363C13.8377 12.5363 14.8156 11.5583 14.8156 10.352Z" fill="#403F3C"/>
<path d="M4.55866 0C4.55866 1.20639 5.53663 2.18436 6.74301 2.18436C5.53663 2.18436 4.55866 3.16233 4.55866 4.36872C4.55866 3.16233 3.58069 2.18436 2.3743 2.18436C3.58069 2.18436 4.55866 1.20639 4.55866 0Z" fill="#403F3C"/>
</svg>
