<svg width="240" height="240" viewBox="0 0 240 240" fill="none" xmlns="http://www.w3.org/2000/svg">
<path d="M120 0C186.3 0 240 53.7 240 120C240 186.3 186.3 240 120 240C53.7 240 0 186.3 0 120C0 93 8.9 68.1 24 48C9.4 37.1 0 19.6 0 0H120ZM120 28.4004C69.4107 28.4004 28.4004 69.4107 28.4004 120C28.4004 170.589 69.4108 211.6 120 211.6C170.589 211.6 211.6 170.589 211.6 120C211.6 69.4107 170.589 28.4004 120 28.4004Z" fill="black"/>
<path d="M163.3 102.3C162.1 99.3 159 98.9 156.9 101.5C156.9 101.5 152.8 106.6 146.3 106.6C137.8 106.6 130.9 99.7 130.9 91.2C130.9 85.2 135 81.5 135 81.5C137.4 79.3 136.8 76.7 133.8 75.7C133.8 75.7 132.1 74.9 129.4 74.3C126.8 73.7 123.4 73.3 120 73.3C94.2 73.3 73.3 94.2 73.3 120C73.3 145.8 94.2 166.7 120 166.7C145.8 166.7 166.7 145.8 166.7 120C166.8 109.7 163.3 102.3 163.3 102.3Z" fill="black"/>
</svg>
