<svg width="27" height="15" viewBox="0 0 27 15" fill="none" xmlns="http://www.w3.org/2000/svg">
<path d="M2.88256 9.81675C2.88256 6.20419 5.09253 2.43456 7.68683 2.43456C9.12811 2.43456 10.2811 3.14136 12.1068 5.26178C10.3772 7.46073 9.32029 8.79581 9.32029 8.79581C7.01424 11.7801 6.24555 12.4084 4.99644 12.4084C3.74733 12.4869 2.88256 11.5445 2.88256 9.81675ZM17.968 8.48168L16.3345 6.28272C15.9502 5.73298 15.4698 5.18325 15.0854 4.71204C16.5267 2.90576 17.6797 1.96335 19.121 1.96335C22.0036 1.96335 24.3096 5.49738 24.3096 9.89529C24.3096 11.5445 23.637 12.4869 22.2918 12.4869C20.9466 12.4869 20.4662 11.7801 17.968 8.48168ZM13.8363 3.14136C11.7224 0.863874 9.8968 0 7.78292 0C3.36299 0 0 4.79058 0 9.81675C0 12.9581 1.82562 14.9215 4.90036 14.9215C7.11032 14.9215 8.64769 14.0576 11.5303 9.97382C11.5303 9.97382 12.6833 8.24607 13.548 7.06806C13.8363 7.46073 14.1246 7.8534 14.4128 8.32461L15.758 10.2094C18.3523 13.822 19.7936 15 22.3879 15C25.3665 15 27 12.9581 27 9.73822C26.9039 4.3979 23.4448 0 19.3132 0C17.1032 0 15.3737 1.41361 13.8363 3.14136Z" fill="black"/>
</svg>
