<svg width="2939" height="1030" viewBox="0 0 2939 1030" fill="none" xmlns="http://www.w3.org/2000/svg">
<path d="M416.74 0C416.74 3.52253 415.933 4.7115 414.135 7.69922C413.288 9.12343 413.288 9.12343 412.423 10.5764C411.806 11.6031 411.189 12.6297 410.553 13.6875C403.852 25.0024 397.477 36.4563 391.302 48.0649C390.277 49.9909 389.249 51.9151 388.218 53.8374C367.089 93.2417 349.767 134.569 335.74 177C335.517 177.674 335.294 178.347 335.064 179.041C329.721 195.226 325.17 211.489 321.408 228.111C320.761 230.912 320.074 233.698 319.369 236.484C316.538 247.743 314.589 258.919 313.092 270.426C312.41 275.415 311.577 280.381 310.742 285.346C309.096 295.421 308.576 305.43 308.537 315.629C308.531 316.817 308.526 318.005 308.52 319.229C308.51 321.737 308.504 324.246 308.5 326.755C308.49 330.5 308.459 334.245 308.428 337.99C308.334 359.574 310.076 380.893 314.74 402C314.967 403.075 314.967 403.075 315.199 404.171C324.053 445.553 343.988 483.336 372.451 514.488C373.993 516.18 375.519 517.886 377.029 519.605C381.644 524.846 386.389 529.526 391.74 534C392.662 534.81 393.584 535.619 394.533 536.453C421.899 560.385 454.67 576.714 489.74 586C490.539 586.212 491.337 586.424 492.16 586.642C494.788 587.334 497.42 588.013 500.053 588.688C501.288 589.009 501.288 589.009 502.549 589.338C507.188 590.505 511.689 591.279 516.449 591.732C519.763 592.12 522.997 592.817 526.262 593.496C579.88 604.397 636.911 599.559 690.74 593C691.44 592.915 692.141 592.831 692.862 592.744C706.993 591.033 721.011 589.198 734.9 586.051C739.574 585.003 744.277 584.174 748.994 583.345C765.44 580.441 781.589 576.561 797.776 572.493C801.1 571.658 804.424 570.827 807.748 569.996C808.741 569.748 808.741 569.748 809.754 569.494C813.705 568.506 817.659 567.525 821.614 566.551C834.871 563.285 848.102 559.999 861.205 556.151C868.752 553.951 876.366 552.061 883.998 550.181C893.697 547.785 903.309 545.12 912.915 542.379C922.629 539.612 932.366 537.1 942.202 534.805C948.223 533.39 954.155 531.781 960.088 530.031C964.615 528.753 969.172 527.624 973.74 526.5C979.273 525.138 984.775 523.74 990.24 522.125C997.336 520.049 1004.5 518.281 1011.68 516.5C1020.68 514.267 1029.66 512.015 1038.61 509.581C1043.4 508.277 1048.19 506.982 1052.99 505.688C1054.09 505.389 1055.2 505.091 1056.33 504.784C1065.64 502.276 1074.97 499.854 1084.32 497.485C1089.73 496.1 1095.08 494.611 1100.41 492.941C1105.81 491.252 1111.22 489.862 1116.74 488.625C1123.74 487.007 1130.66 485.218 1137.55 483.188C1146.56 480.542 1155.63 478.243 1164.74 476C1174.52 473.59 1184.25 471.07 1193.92 468.223C1202.5 465.721 1211.19 463.606 1219.87 461.465C1225.52 460.067 1231.15 458.652 1236.74 457C1243.54 454.988 1250.42 453.322 1257.3 451.625C1266.6 449.331 1275.82 446.892 1285 444.202C1292.62 441.99 1300.29 440.077 1307.99 438.184C1314.84 436.493 1321.65 434.675 1328.44 432.754C1333.84 431.231 1339.27 429.851 1344.72 428.515C1349.59 427.312 1354.42 425.99 1359.24 424.625C1366.31 422.627 1373.42 420.817 1380.55 419.062C1388.01 417.224 1395.43 415.281 1402.8 413.125C1411.3 410.646 1419.85 408.383 1428.43 406.188C1431.1 405.503 1433.78 404.818 1436.45 404.133C1437.13 403.959 1437.81 403.785 1438.51 403.606C1446.2 401.632 1453.88 399.6 1461.55 397.562C1462.26 397.375 1462.96 397.188 1463.69 396.995C1467.27 396.045 1470.86 395.093 1474.44 394.141C1480.83 392.444 1487.23 390.753 1493.62 389.061C1497.16 388.125 1500.7 387.187 1504.24 386.25C1505.66 385.875 1507.07 385.5 1508.49 385.125C1509.19 384.939 1509.89 384.754 1510.62 384.562C1512.74 384 1514.87 383.438 1516.99 382.875C1518.04 382.597 1518.04 382.597 1519.11 382.313C1520.53 381.937 1521.95 381.562 1523.37 381.187C1526.9 380.253 1530.43 379.318 1533.96 378.384C1540.48 376.656 1547 374.931 1553.53 373.21C1557.26 372.224 1561 371.237 1564.74 370.25C1565.46 370.059 1566.19 369.869 1566.93 369.672C1575.5 367.408 1584.06 365.092 1592.59 362.673C1599.08 360.856 1605.64 359.336 1612.21 357.804C1618.23 356.39 1624.16 354.78 1630.09 353.031C1634.62 351.753 1639.17 350.624 1643.74 349.5C1649.27 348.138 1654.77 346.74 1660.24 345.125C1667.34 343.049 1674.5 341.281 1681.68 339.5C1690.68 337.267 1699.66 335.015 1708.61 332.581C1713.4 331.277 1718.19 329.982 1722.99 328.688C1724.09 328.389 1725.2 328.091 1726.33 327.784C1735.64 325.276 1744.97 322.854 1754.32 320.485C1759.72 319.102 1765.06 317.617 1770.38 315.949C1775.95 314.206 1781.54 312.782 1787.24 311.5C1792.97 310.175 1798.64 308.81 1804.24 307C1809.81 305.207 1815.43 303.83 1821.12 302.5C1831.87 299.984 1842.52 297.172 1853.16 294.219C1871.69 289.08 1890.27 284.181 1908.9 279.427C1931.36 273.697 1953.76 267.805 1976.06 261.5C1984.76 259.043 1993.48 256.85 2002.28 254.804C2008.03 253.452 2013.62 251.844 2019.24 250.031C2024.76 248.405 2030.35 247.157 2035.95 245.855C2042.05 244.427 2048.07 242.807 2054.08 241.031C2058.63 239.748 2063.21 238.624 2067.8 237.5C2073.32 236.147 2078.77 234.742 2084.18 233C2089.69 231.244 2095.24 229.877 2100.87 228.562C2113.73 225.555 2126.48 222.215 2139.19 218.613C2150.38 215.445 2161.6 212.445 2172.87 209.562C2173.61 209.373 2174.35 209.184 2175.11 208.988C2179.59 207.842 2184.07 206.7 2188.55 205.558C2194.74 203.981 2200.93 202.401 2207.12 200.812C2208.08 200.564 2208.08 200.564 2209.07 200.31C2217.81 198.063 2226.5 195.681 2235.16 193.15C2242.73 190.957 2250.36 189.061 2258.01 187.179C2263.95 185.714 2269.86 184.171 2275.74 182.5C2282.64 180.539 2289.58 178.776 2296.55 177.062C2304.08 175.209 2311.55 173.242 2318.99 171.062C2328.55 168.263 2338.2 165.85 2347.87 163.465C2354.56 161.81 2361.19 160.053 2367.8 158.094C2374.92 156.058 2382.16 154.386 2389.36 152.637C2396.21 150.952 2402.94 149.041 2409.68 146.924C2414.16 145.573 2418.68 144.526 2423.24 143.5C2428.97 142.175 2434.64 140.81 2440.24 139C2446.75 136.898 2453.36 135.398 2460.02 133.855C2464.82 132.731 2469.54 131.517 2474.24 130C2480.75 127.898 2487.36 126.398 2494.02 124.855C2498.82 123.731 2503.54 122.517 2508.24 121C2513.52 119.302 2518.84 117.995 2524.24 116.75C2534.17 114.455 2543.97 111.765 2553.78 109.019C2562.64 106.549 2571.54 104.269 2580.48 102.081C2586.87 100.504 2593.17 98.7344 2599.46 96.8191C2604.84 95.2061 2610.27 93.8885 2615.74 92.625C2623.43 90.8462 2631.03 88.8502 2638.62 86.6875C2648.1 83.9856 2657.62 81.4433 2667.18 79C2676.86 76.5235 2686.53 73.9984 2696.18 71.375C2704.45 69.1269 2712.73 66.9843 2721.05 64.9375C2729.26 62.9163 2737.39 60.7024 2745.51 58.3245C2754.18 55.8132 2762.94 53.6584 2771.71 51.5354C2778.46 49.8868 2785.07 48.0011 2791.7 45.9194C2796 44.6178 2800.35 43.6077 2804.74 42.625C2812.08 40.9323 2819.32 39.0433 2826.55 36.9375C2835.24 34.4094 2843.95 32.1381 2852.74 30C2865.18 26.9617 2877.57 23.8366 2889.86 20.2549C2897.41 18.0661 2905 16.0751 2912.6 14.1248C2919.16 12.4384 2925.64 10.5968 2932.1 8.56641C2934.84 7.97771 2936.11 8.23168 2938.74 9C2937.99 9.31115 2937.23 9.62229 2936.46 9.94287C2920.45 16.5601 2904.45 23.1907 2888.46 29.864C2886.59 30.6471 2884.71 31.4284 2882.83 32.2083C2875.65 35.1888 2868.5 38.2382 2861.37 41.3125C2845.75 48.0229 2830.08 54.6082 2814.41 61.1955C2807.85 63.9536 2801.29 66.724 2794.74 69.5C2784.08 74.0155 2773.41 78.5093 2762.74 83C2747.73 89.316 2732.73 95.6491 2717.74 102C2701.92 108.703 2686.08 115.384 2670.25 122.05C2660.41 126.191 2650.57 130.336 2640.74 134.5C2630.08 139.015 2619.41 143.509 2608.74 148C2597.82 152.596 2586.9 157.194 2575.99 161.812C2574.44 162.468 2574.44 162.468 2572.86 163.138C2567.78 165.286 2562.71 167.437 2557.64 169.59C2548.3 173.553 2538.95 177.505 2529.58 181.395C2528.86 181.69 2528.15 181.986 2527.42 182.29C2526.69 182.591 2525.97 182.892 2525.22 183.201C2509.19 189.857 2493.21 196.628 2477.27 203.484C2465.28 208.637 2453.27 213.734 2441.21 218.727C2435.19 221.223 2429.18 223.766 2423.18 226.312C2413.79 230.291 2404.39 234.248 2394.99 238.188C2383.42 243.034 2371.86 247.886 2360.3 252.75C2359.51 253.083 2358.72 253.416 2357.91 253.759C2344.62 259.352 2331.35 264.99 2318.09 270.639C2306.33 275.646 2294.55 280.598 2282.74 285.5C2264.95 292.886 2247.23 300.418 2229.51 307.967C2222.24 311.067 2214.96 314.16 2207.68 317.25C2207.01 317.535 2206.33 317.82 2205.64 318.114C2195.21 322.54 2184.77 326.93 2174.32 331.303C2164.28 335.506 2154.26 339.743 2144.24 344C2133.69 348.484 2123.13 352.946 2112.55 357.375C2111.92 357.639 2111.29 357.902 2110.65 358.174C2110.01 358.439 2109.38 358.704 2108.73 358.978C2079.94 371.034 2051.19 383.181 2022.44 395.324C2015.56 398.231 2008.68 401.137 2001.79 404.043C1980.1 413.2 1958.42 422.361 1936.74 431.543C1916.63 440.057 1896.5 448.525 1876.38 456.995C1847.43 469.178 1818.49 481.391 1789.55 493.614C1784.41 495.785 1779.27 497.956 1774.13 500.126C1771.26 501.341 1768.38 502.556 1765.51 503.771C1755.7 507.915 1745.88 512.049 1736.04 516.117C1727.31 519.735 1718.63 523.475 1709.95 527.21C1695.64 533.364 1681.31 539.468 1666.93 545.438C1653.53 550.996 1640.16 556.604 1626.8 562.25C1625.86 562.649 1624.92 563.048 1623.94 563.459C1619.13 565.492 1614.32 567.526 1609.51 569.561C1601.02 573.149 1592.53 576.733 1584.04 580.317C1579.36 582.294 1574.67 584.272 1569.99 586.25C1568.12 587.042 1566.24 587.833 1564.37 588.625C1563.44 589.017 1562.51 589.409 1561.55 589.812C1508.12 612.375 1508.12 612.375 1505.3 613.562C1503.43 614.354 1501.55 615.146 1499.68 615.938C1494.99 617.915 1490.31 619.892 1485.63 621.868C1477.13 625.458 1468.63 629.048 1460.12 632.639C1455.35 634.656 1450.58 636.672 1445.8 638.688C1444.87 639.083 1443.93 639.478 1442.97 639.885C1429.19 645.701 1415.42 651.506 1401.63 657.304C1390 662.2 1378.37 667.121 1366.75 672.058C1356.29 676.504 1345.81 680.914 1335.32 685.303C1325.28 689.506 1315.26 693.743 1305.24 698C1294.44 702.59 1283.63 707.155 1272.8 711.688C1262.55 715.979 1252.31 720.29 1242.08 724.626C1232.31 728.765 1222.52 732.883 1212.74 737C1195.12 744.417 1177.5 751.852 1159.9 759.328C1145.21 765.57 1130.5 771.791 1115.78 777.956C1108.55 780.979 1101.34 784.011 1094.12 787.055C1090.81 788.453 1087.49 789.852 1084.18 791.25C1083.36 791.593 1082.55 791.936 1081.71 792.29C1072.22 796.292 1062.72 800.258 1053.18 804.125C1046.81 806.706 1040.55 809.435 1034.33 812.367C1026.4 815.974 1018.3 819.214 1010.24 822.548C1003.94 825.161 997.653 827.799 991.365 830.438C990.706 830.714 990.047 830.99 989.369 831.275C973.521 837.923 957.694 844.621 941.877 851.34C927.174 857.585 912.461 863.807 897.726 869.978C887.685 874.183 877.648 878.4 867.615 882.625C866.829 882.956 866.043 883.287 865.233 883.628C854.83 888.008 844.431 892.397 834.035 896.791C824.558 900.796 815.08 904.797 805.6 908.794C803.691 909.599 801.781 910.404 799.872 911.21C766.311 925.369 732.568 938.882 698.435 951.605C695.128 952.854 691.841 954.142 688.556 955.446C679.698 958.948 670.768 962.075 661.714 965.025C655.881 966.938 650.06 968.889 644.237 970.833C642.118 971.541 639.998 972.248 637.879 972.954C637.202 973.18 636.525 973.405 635.827 973.638C634.472 974.09 633.116 974.541 631.761 974.992C628.421 976.104 625.082 977.221 621.747 978.347C614.663 980.735 607.569 983 600.365 985C598.559 985.509 596.753 986.018 594.947 986.527C593.63 986.898 593.63 986.898 592.286 987.277C588.533 988.343 584.793 989.452 581.053 990.562C578.283 991.379 575.512 992.191 572.74 993C572.039 993.205 571.338 993.41 570.615 993.621C559.072 996.969 547.445 999.73 535.713 1002.33C532.665 1003.02 529.622 1003.72 526.58 1004.44C504.768 1009.55 482.863 1014.41 460.74 1018C459.892 1018.14 459.045 1018.28 458.171 1018.43C402.819 1027.6 345.74 1033.37 289.74 1027C288.553 1026.87 287.366 1026.73 286.143 1026.59C259.773 1023.52 234.145 1018.74 208.74 1011C207.84 1010.73 206.94 1010.46 206.012 1010.18C165.629 997.918 129.541 976.889 97.6425 949.488C95.8971 947.992 94.1422 946.506 92.3691 945.043C90.7903 943.737 89.2576 942.376 87.7402 941C87.7402 940.34 87.7402 939.68 87.7402 939C87.0802 939 86.4202 939 85.7402 939C85.7402 938.34 85.7402 937.68 85.7402 937C85.0802 937 84.4202 937 83.7402 937C83.7402 936.34 83.7402 935.68 83.7402 935C82.7502 934.67 81.7602 934.34 80.7402 934C79.3378 932.645 79.3378 932.645 77.8027 930.812C77.1904 930.088 76.5781 929.364 75.9472 928.617C74.8547 927.322 74.8547 927.322 73.7402 926C72.8293 924.959 71.9164 923.92 71.0019 922.883C45.9855 894.369 26.359 861.166 14.7402 825C14.5241 824.335 14.308 823.67 14.0854 822.985C12.4936 818.027 11.0679 813.035 9.74018 808C9.53006 807.205 9.31994 806.411 9.10346 805.592C-1.22315 765.373 -1.88035 722.085 2.74018 681C2.84733 679.974 2.95449 678.947 3.06489 677.89C4.47326 664.413 6.38559 651.123 9.14692 637.857C9.79484 634.737 10.421 631.613 11.0488 628.488C21.791 575.904 39.8871 524.54 62.7402 476C63.1815 475.062 63.6229 474.125 64.0776 473.159C67.5799 465.747 71.1458 458.367 74.7402 451C75.2666 449.918 75.793 448.837 76.3354 447.723C83.4327 433.187 90.9272 418.965 99.0292 404.964C100.821 401.86 102.594 398.745 104.365 395.629C124.527 360.243 147 326.089 170.74 293C171.572 291.837 171.572 291.837 172.42 290.651C179.078 281.347 185.816 272.108 192.74 263C193.327 262.228 193.914 261.455 194.518 260.659C209.842 240.497 225.241 220.422 241.264 200.809C242.571 199.208 243.874 197.604 245.178 196C249.608 190.557 254.111 185.183 258.655 179.835C261.553 176.419 264.412 172.975 267.24 169.5C275.219 159.707 283.463 150.133 291.693 140.551C293.75 138.156 295.802 135.757 297.85 133.355C302.318 128.119 306.794 122.904 311.428 117.812C314.381 114.563 317.185 111.241 319.928 107.812C324.83 101.747 330.163 96.1184 335.51 90.4453C338.45 87.3222 341.304 84.1373 344.103 80.8867C346.119 78.5634 348.179 76.2825 350.24 74C352.891 71.0632 355.523 68.114 358.115 65.125C361.569 61.1575 365.13 57.2915 368.693 53.4224C371.245 50.6454 373.77 47.8504 376.24 45C379.603 41.1218 383.074 37.3447 386.548 33.5669C390.982 28.7441 395.365 23.8762 399.74 19C401.261 17.3124 402.782 15.6249 404.303 13.9375C408.469 9.30947 412.61 4.65959 416.74 0Z" fill="black"/>
</svg>
